<?xml version="1.0" standalone="no"?>
<!DOCTYPE svg PUBLIC "-//W3C//DTD SVG 1.1//EN" "http://www.w3.org/Graphics/SVG/1.1/DTD/svg11.dtd" >
<svg xmlns="http://www.w3.org/2000/svg">
<metadata></metadata>
<defs>
<font id="neotericregular" horiz-adv-x="1187" >
<font-face units-per-em="2048" ascent="1675" descent="-373" />
<missing-glyph horiz-adv-x="655" />
<glyph horiz-adv-x="0" />
<glyph unicode="&#xd;" horiz-adv-x="614" />
<glyph horiz-adv-x="0" />
<glyph horiz-adv-x="0" />
<glyph unicode="&#xa;" horiz-adv-x="0" />
<glyph horiz-adv-x="0" />
<glyph unicode=" "  horiz-adv-x="655" />
<glyph unicode="&#x09;" horiz-adv-x="655" />
<glyph unicode="&#xa0;" horiz-adv-x="655" />
<glyph unicode="!" horiz-adv-x="335" d="M182 61q1 52 54 52q20 0 34.5 -14.5t14.5 -37.5q0 -29 -14.5 -41t-34.5 -12q-53 0 -54 53zM190 182v1166h91v-1166h-91z" />
<glyph unicode="&#x22;" horiz-adv-x="479" d="M131 1290v209h94v-209h-94zM295 1290v209h94v-209h-94z" />
<glyph unicode="#" horiz-adv-x="1245" d="M20 512l23 86h303q14 57 24.5 93t16.5 58.5t10 38t9 33.5h-308l23 86h305l78 303h90l-78 -303h305l78 303h88l-74 -303h287l-22 -86h-289l-58 -223h291l-22 -86h-287l-100 -383q-31 0 -58.5 1t-31.5 1l100 381h-307q-23 -92 -39.5 -155.5t-27.5 -106.5t-18 -71.5 t-14 -49.5q-31 0 -58.5 1t-31.5 1l101 381h-308zM434 598h309q14 57 23.5 93t15.5 58.5t10.5 38t8.5 33.5h-307z" />
<glyph unicode="$" horiz-adv-x="763" d="M37 178l24 74l58 -14q35 -10 90 -23.5t102 -13.5v448q-51 8 -100 26.5t-87 52.5t-61.5 83t-23.5 119q0 111 69.5 188.5t192.5 102.5q4 2 3 2t7 0v125h88v-115h45q25 0 56.5 -5t65.5 -13.5t66 -18.5t56 -20l-22 -82q-78 31 -135.5 42t-122.5 11h-9v-420q51 -4 99.5 -16.5 t99.5 -46.5q57 -41 89 -104.5t32 -131.5q0 -70 -24.5 -124t-67.5 -94t-101.5 -63.5t-126.5 -29.5v-152h-88v150q-61 4 -138 22.5t-136 40.5zM123 911q0 -37 21.5 -74.5t56.5 -60.5q27 -20 54.5 -28.5t55.5 -12.5v402q-78 -18 -133 -71.5t-55 -154.5zM399 201q47 2 90 19.5 t75 48t51.5 72.5t19.5 97q0 27 -11.5 57t-23.5 50q-41 59 -92 76.5t-109 21.5v-442z" />
<glyph unicode="%" horiz-adv-x="1673" d="M94 1057q0 84 24.5 163.5t69.5 141t105.5 99.5t134.5 38t134.5 -38t104.5 -99.5t67.5 -141t23.5 -163.5t-23.5 -163t-67.5 -139.5t-104.5 -97t-134.5 -36.5t-134.5 36.5t-105.5 97t-69.5 139.5t-24.5 163zM182 1057q0 -63 18.5 -125t51.5 -111t78 -79.5t98 -30.5 q55 0 99 30.5t75 79.5t48.5 111t17.5 125q0 66 -17.5 129t-48.5 112.5t-75 80t-99 30.5q-53 0 -98 -30.5t-78 -80t-51.5 -113t-18.5 -128.5zM250 0l1018 1497h100l-1018 -1497h-100zM877 420q0 84 24.5 164t68.5 141t105.5 98t132.5 37q74 0 134.5 -37t104.5 -98t67.5 -141 t23.5 -164t-23.5 -163t-67.5 -140.5t-104.5 -98t-134.5 -36.5q-72 0 -133 36.5t-105 98t-68.5 140.5t-24.5 163zM965 420q0 -63 18 -126t50 -112t77 -79.5t98 -30.5q55 0 99.5 30.5t75 79.5t48 112t17.5 126t-17.5 126.5t-48 113t-74.5 80t-100 30.5q-53 0 -98 -30.5 t-77 -80t-50 -113t-18 -126.5z" />
<glyph unicode="&#x26;" horiz-adv-x="1280" d="M111 940q0 78 30.5 151.5t82.5 132t124 94.5t154 36q111 0 202 -61.5t150 -159.5l-72 -48q-47 84 -120.5 134.5t-153.5 50.5q-66 0 -122 -28t-97 -72t-65.5 -101t-24.5 -117q0 -66 29.5 -111.5t78.5 -74.5t109.5 -41t122.5 -12q12 0 27.5 1t56.5 5v-96q-35 6 -46.5 7 t-17.5 1q-59 0 -122.5 -20.5t-116 -57.5t-85 -89t-32.5 -118q0 -59 25.5 -107.5t67.5 -83t94 -54t108 -19.5h16q68 2 132.5 28.5t117.5 70.5t93 101.5t61 120.5q-23 14 -44.5 19.5t-48.5 5.5q-29 0 -58.5 -18.5t-53.5 -61.5l-72 51q43 66 85 89.5t85 23.5q37 0 74 -10 t76 -27q35 -12 67.5 -22.5t67.5 -10.5q25 0 52.5 12.5t61.5 41.5l47 -72q-96 -68 -176 -68q-45 0 -86 15q-37 -86 -76.5 -145.5t-87.5 -104.5q-66 -51 -144.5 -87t-166.5 -36h-26q-72 0 -139.5 27.5t-121 76t-86 113t-32.5 137.5q0 100 59 182t145 128q-43 18 -80.5 45.5 t-66.5 63.5t-45 79t-16 90z" />
<glyph unicode="'" horiz-adv-x="452" d="M133 1083l115 240l129 47l-152 -330z" />
<glyph unicode="(" horiz-adv-x="489" d="M27 662q0 223 60 442t183 424l80 -45q-117 -199 -174 -409t-57 -421q0 -227 67.5 -452.5t208.5 -429.5l-71 -54q-147 221 -222 462t-75 483z" />
<glyph unicode=")" horiz-adv-x="489" d="M27 -229q141 205 208.5 430t67.5 452q0 211 -57.5 421t-173.5 409l80 45q123 -205 183 -424t60 -442q0 -242 -74.5 -482.5t-222.5 -462.5z" />
<glyph unicode="*" horiz-adv-x="550" d="M23 1036l178 27l-117 141l55 58l121 -148l68 174l65 -33l-61 -170l188 29l4 -76l-180 -28q29 -35 62.5 -78t58.5 -72l-68 -37l-112 138l-68 -175l-67 33l63 168l-186 -31z" />
<glyph unicode="+" horiz-adv-x="878" d="M-6 567v90h395v381h90v-381h387v-90h-387v-401h-90v401h-395z" />
<glyph unicode="," horiz-adv-x="260" d="M25 -131l41 180l114 64l-63 -263z" />
<glyph unicode="-" horiz-adv-x="1136" d="M139 567v90h871v-90h-871z" />
<glyph unicode="." horiz-adv-x="325" d="M98 49q0 23 15.5 41.5t40.5 18.5q29 0 44 -18.5t15 -41.5q0 -27 -15.5 -43t-43.5 -16q-25 0 -40.5 16.5t-15.5 42.5z" />
<glyph unicode="/" horiz-adv-x="1083" d="M-29 0l1018 1497h101l-1018 -1497h-101z" />
<glyph unicode="0" horiz-adv-x="1249" d="M92 674q0 133 39 260t107.5 225t165 157.5t210.5 59.5q115 0 210.5 -59.5t163 -157.5t104 -225t36.5 -260t-36.5 -259t-104 -223.5t-163 -156t-210.5 -58.5t-211 58.5t-164.5 156t-107.5 223.5t-39 259zM180 674q0 -109 32 -217.5t89 -194.5t137 -140t176 -54 q98 0 177 54t134.5 140t85 194.5t29.5 217.5q0 113 -29.5 222.5t-85 196.5t-134 140t-177.5 53q-96 0 -176 -53t-137 -140t-89 -197t-32 -222z" />
<glyph unicode="1" horiz-adv-x="581" d="M-27 786l457 656v-1442h-90v1153l-295 -422z" />
<glyph unicode="2" horiz-adv-x="1005" d="M88 0l631 821q55 78 55 160q0 55 -21.5 108.5t-58.5 95.5t-88 68.5t-110 28.5t-112.5 -19.5t-94.5 -60.5t-64.5 -90t-23.5 -106q0 -20 12 -82l-90 -17q-6 29 -10 53.5t-4 45.5q0 74 31.5 140t83.5 116.5t122 80t146 29.5q80 0 149.5 -34.5t119.5 -90t78.5 -125 t28.5 -141.5q0 -117 -80 -215v2l-518 -678h658v-90h-840z" />
<glyph unicode="3" horiz-adv-x="946" d="M41 1001q4 125 75.5 217.5t178.5 127.5q57 18 106 18q57 0 113.5 -18.5t104 -50t84 -76.5t57.5 -101q10 -27 16 -57.5t6 -59.5q0 -86 -45 -159.5t-123 -120.5q70 -27 122 -80t77 -127v-2q18 -55 18 -106q0 -59 -19 -119t-55 -111t-86 -92t-112 -66q-41 -16 -80 -23 t-78 -7q-57 0 -110 18.5t-98.5 52t-81 82.5t-56.5 111l99 16q12 -45 37.5 -80.5t60.5 -60.5t76 -37t84 -12q41 0 79.5 10t73.5 33q78 47 126 122.5t48 162.5q2 57 -27.5 107t-78.5 85t-111.5 50.5t-130.5 2.5v111q59 -4 113.5 18.5t96.5 59.5t67.5 85t25.5 97 q-6 49 -33.5 95t-67.5 81t-90 55.5t-104 20.5q-51 0 -99 -20.5t-85 -57.5t-59.5 -86t-20.5 -104z" />
<glyph unicode="4" horiz-adv-x="1175" d="M-31 285l875 1140v-1050h268v-90h-268v-285h-90v285h-785zM152 375h602v786q-154 -203 -300.5 -391t-301.5 -395z" />
<glyph unicode="5" horiz-adv-x="976" d="M84 287l82 35q18 -43 50 -85t74 -74t91 -51.5t98 -19.5q74 0 140.5 27.5t115.5 77t78 115t29 141.5q0 74 -29 140t-78 115.5t-115.5 78t-142.5 28.5q-39 0 -83 -18.5t-87 -49t-84 -71.5t-71 -84v780h688v-90h-598v-453q127 76 237 76q94 0 176 -35.5t143.5 -97 t97.5 -144.5t36 -175q0 -94 -36 -176t-97.5 -143.5t-143.5 -97.5t-176 -36q-129 0 -235.5 79t-159.5 208z" />
<glyph unicode="6" horiz-adv-x="1028" d="M49 453q0 133 78 252l459 667h108l-344 -495q45 12 84 20t72 8q96 0 178 -39t142.5 -102.5t94 -145t33.5 -167.5q0 -98 -38.5 -181.5t-102 -143.5t-145.5 -93t-168 -33q-98 0 -181 38t-142.5 101.5t-93.5 145.5t-34 168zM139 455q0 -72 28 -136.5t77 -115.5t115.5 -81 t144.5 -30q68 0 132 26.5t114.5 74t81 114t30.5 146.5q0 68 -26.5 133t-74.5 116.5t-113.5 82t-141.5 30.5q-72 0 -138.5 -27.5t-117.5 -76.5t-81 -115t-30 -141z" />
<glyph unicode="7" horiz-adv-x="837" d="M-6 1260v90h840l-627 -1360l-86 37l569 1233h-696z" />
<glyph unicode="8" horiz-adv-x="960" d="M76 389q0 119 61.5 219.5t169.5 149.5q-66 47 -99.5 119.5t-33.5 160.5q0 63 21.5 125t60.5 109t94.5 75.5t120.5 28.5q55 0 108.5 -24.5t93.5 -68.5t64.5 -106.5t24.5 -136.5q0 -90 -33 -163.5t-100 -120.5q111 -53 173 -150.5t62 -218.5q0 -78 -28.5 -150.5t-81 -129 t-125 -90t-160.5 -33.5q-76 0 -146.5 29.5t-126 83t-88 128t-32.5 164.5zM168 387q2 -63 26.5 -119.5t66.5 -99.5t95.5 -67.5t112.5 -24.5q74 0 130 28.5t94 73.5t57.5 100.5t19.5 108.5q0 61 -24.5 118.5t-65.5 100.5t-95.5 68.5t-113.5 25.5t-112.5 -24.5t-93.5 -66.5 t-65.5 -99t-31.5 -123zM266 1038q0 -43 15.5 -86t43 -77.5t64.5 -56t80 -21.5q51 0 89 21.5t62.5 55t37 77.5t12.5 89q0 47 -14.5 91.5t-40 79t-61.5 55t-79 20.5t-81 -19.5t-66.5 -53t-45 -78.5t-16.5 -97z" />
<glyph unicode="9" horiz-adv-x="1026" d="M51 922q0 100 39 183t103.5 142.5t146.5 92t168 32.5q98 0 180 -38t142.5 -101.5t93 -144t32.5 -166.5q0 -63 -23.5 -130t-58.5 -124l-454 -668h-107l338 498q-43 -16 -79.5 -22.5t-67.5 -6.5q-98 0 -181 39t-143.5 102.5t-94.5 144.5t-34 167zM145 922q0 -68 27 -132.5 t74 -115.5t112.5 -82t145.5 -31q74 0 139.5 27.5t114.5 77t78.5 115t29.5 141.5q0 68 -27.5 133t-76.5 115.5t-114.5 81t-141.5 30.5q-68 0 -133.5 -26.5t-115.5 -74.5t-81 -114t-31 -145z" />
<glyph unicode=":" horiz-adv-x="571" d="M221 59q0 23 16.5 40.5t41.5 17.5q27 0 43 -17.5t16 -40.5q0 -29 -16.5 -44t-42.5 -15q-25 0 -41.5 15.5t-16.5 43.5zM221 614q0 25 16.5 42.5t41.5 17.5q27 0 43 -17.5t16 -42.5q0 -27 -16.5 -42t-42.5 -15q-25 0 -41.5 15.5t-16.5 41.5z" />
<glyph unicode=";" horiz-adv-x="227" d="M20 -131l41 180l115 64l-63 -263zM55 614q0 25 15.5 42.5t42.5 17.5t42 -17.5t15 -42.5q0 -57 -57 -57t-58 57z" />
<glyph unicode="&#x3c;" horiz-adv-x="1132" d="M-47 616l1034 480l37 -80l-860 -400q213 -98 431 -200.5t429 -198.5l-37 -80z" />
<glyph unicode="=" horiz-adv-x="690" d="M33 442v90h608v-90h-608zM33 731v90h608v-90h-608z" />
<glyph unicode="&#x3e;" horiz-adv-x="1132" d="M84 217l860 399q-213 98 -431 201t-429 199l37 80l1034 -480l-1034 -479z" />
<glyph unicode="?" horiz-adv-x="1359" d="M188 887q10 104 59.5 193t123 153.5t165 101.5t187.5 37t188 -38t166 -124q57 -66 84 -140.5t27 -149.5q0 -86 -32 -170t-91 -152t-142 -115t-184 -59v-266h-92v352h43q86 6 161 44t129 94.5t85 127t31 144.5q0 63 -23.5 125.5t-73.5 115.5q-59 66 -130.5 93.5 t-147.5 27.5q-78 0 -153.5 -29.5t-136 -84t-100.5 -127t-46 -158.5zM637 41q0 29 17.5 43t39 14t39 -14t17.5 -43t-17.5 -43t-39 -14t-39 14t-17.5 43z" />
<glyph unicode="@" horiz-adv-x="1882" d="M98 549q0 168 65.5 316.5t179.5 259t266.5 175t324.5 64.5t323.5 -64.5t264 -175t178 -259t65.5 -316.5q0 -63 -4 -108.5t-26 -82.5l2 2q-33 -80 -104.5 -128t-164.5 -48q-86 0 -155.5 43t-106.5 115q-51 -72 -132 -116t-177 -44q-78 0 -144.5 29t-117.5 79t-80 116.5 t-29 142.5t29 143.5t80 117.5t117.5 80t144.5 30q180 0 281 -132v132h90v-451q0 -41 16 -77t44 -62.5t63.5 -42t76.5 -15.5q63 0 113.5 32t73.5 83v-2q8 27 13 44t7 33.5t2 36v50.5q0 150 -58 282t-158.5 230t-237 155.5t-289.5 57.5q-154 0 -290 -57.5t-237.5 -155.5 t-160 -230.5t-58.5 -281.5q0 -150 58.5 -281t160 -229t237.5 -155.5t290 -57.5q123 0 235.5 38t210.5 107h144q-139 -111 -290 -172t-300 -61q-172 0 -324.5 64.5t-266.5 175t-179.5 258t-65.5 313.5zM614 549q0 -57 22.5 -108.5t60.5 -89.5t89.5 -60.5t110.5 -22.5 q57 0 108.5 22.5t89.5 60.5t60.5 89.5t22.5 108.5t-22.5 108.5t-60.5 90t-89.5 60t-108.5 21.5q-59 0 -110.5 -21.5t-89.5 -60t-60.5 -90t-22.5 -108.5z" />
<glyph unicode="A" d="M31 -2l553 1376l555 -1370q-23 -4 -42.5 -11t-41.5 -11l-232 548h-483l-113 -276q-29 -70 -57.5 -140.5t-54.5 -136.5q-10 2 -21.5 4.5t-23.5 6.5zM373 608h415q-8 18 -16 43t-16 47q-23 57 -43.5 111.5t-40.5 110.5l-88 241z" />
<glyph unicode="B" horiz-adv-x="1157" d="M139 0v1350h512q74 0 136.5 -29t108.5 -77t72.5 -110.5t26.5 -129.5q0 -92 -44 -171t-122 -126q94 -47 149.5 -137.5t55.5 -196.5q0 -78 -28.5 -145.5t-78.5 -118t-117 -80t-142 -29.5h-529zM229 90h439q57 0 108 21.5t89 60.5t59.5 90t21.5 111q0 57 -21.5 108t-59.5 90 t-89 61.5t-108 22.5h-439v-565zM229 745h422q51 0 98.5 20.5t81 55.5t54 83.5t20.5 101.5t-20.5 99t-54 81t-81 54.5t-98.5 19.5h-422v-515z" />
<glyph unicode="C" horiz-adv-x="1232" d="M96 678q0 143 53.5 268t146.5 218t218 147.5t268 54.5q111 0 218.5 -38t207.5 -109l-71 -56q-78 55 -168 85t-187 30q-125 0 -233.5 -47t-189 -128t-127 -190.5t-46.5 -234.5q0 -123 46.5 -232.5t127 -190.5t189 -129t233.5 -48q111 0 213.5 42t192.5 118l57 -74 q-100 -84 -217 -130t-246 -46q-143 0 -268 55t-218 148.5t-146.5 219.5t-53.5 267z" />
<glyph unicode="D" horiz-adv-x="1335" d="M141 0v1350h410q139 0 262 -53.5t214 -145.5t144.5 -215t53.5 -262t-53.5 -262t-144.5 -214.5t-214 -144.5t-262 -53h-410zM231 90h320q121 0 227.5 46t186 125t126 185.5t46.5 227.5t-46.5 227.5t-126 186t-186 126t-227.5 46.5h-320v-1170z" />
<glyph unicode="E" horiz-adv-x="964" d="M137 0v1350h770v-90h-680v-420h459v-90h-459v-660h727v-90h-817z" />
<glyph unicode="F" horiz-adv-x="892" d="M137 0v1350h748v-90h-658v-426h516v-91h-516v-743h-90z" />
<glyph unicode="G" horiz-adv-x="1529" d="M96 678q0 141 55.5 267t148.5 219t217 147.5t259 54.5q72 0 144.5 -16.5t154.5 -51.5l-37 -88q-72 35 -137 50.5t-123 15.5q-125 0 -232.5 -50t-187 -133t-125 -190.5t-45.5 -224.5q0 -127 48.5 -236.5t130.5 -190.5t187 -127t222 -46q82 0 163 25.5t152.5 72.5 t130 113.5t95.5 150.5q23 59 37 132t14 139q0 6 -1 12t-1 12h-498v92h584q0 -6 1 -24.5t1 -22.5q2 -16 2 -34.5v-34.5q0 -78 -13 -162t-40 -148q-43 -96 -110.5 -171.5t-150.5 -130t-176.5 -83t-189.5 -28.5q-139 0 -263 55t-216 150.5t-146.5 220.5t-54.5 264z" />
<glyph unicode="H" horiz-adv-x="1351" d="M139 0v1350h90v-529h861v529h90v-1350h-90v731h-861v-731h-90z" />
<glyph unicode="I" horiz-adv-x="434" d="M129 0v1350h90v-1350h-90z" />
<glyph unicode="J" horiz-adv-x="673" d="M-14 -12v90q109 2 217 31.5t174 105.5q49 59 64.5 134t15.5 151v850h90v-850q0 -90 -19.5 -180.5t-81.5 -161.5l3 2q-39 -49 -92.5 -82t-114 -53.5t-126 -28.5t-130.5 -8z" />
<glyph unicode="K" horiz-adv-x="1132" d="M139 0v1350h90v-600l689 612l61 -64l-651 -581l723 -666l-74 -57l-717 659l-31 -30v-623h-90z" />
<glyph unicode="L" horiz-adv-x="1021" d="M139 0v1350h90v-1260h781v-90h-871z" />
<glyph unicode="M" horiz-adv-x="1482" d="M141 0v1374l584 -721l582 721v-1374h-90v1118q-119 -147 -247 -306t-245 -304l-494 614v-1122h-90z" />
<glyph unicode="N" horiz-adv-x="1325" d="M139 0v1413l926 -1229v1166h90v-1434l-926 1229v-1145h-90z" />
<glyph unicode="O" horiz-adv-x="1601" d="M96 674q0 143 54.5 268t147.5 218t218 147.5t268 54.5q141 0 266.5 -54.5t218.5 -147.5t147 -218t54 -268q0 -141 -54 -267t-147 -219.5t-218 -147.5t-267 -54q-143 0 -268 54t-218 147.5t-147.5 219t-54.5 267.5zM186 674q0 -123 47.5 -232.5t128 -190.5t189 -128 t233.5 -47q123 0 231.5 47t189.5 128t128 190.5t47 232.5q0 125 -47 233.5t-128 189.5t-189.5 128t-231.5 47q-125 0 -233.5 -47t-189 -128t-128 -189.5t-47.5 -233.5z" />
<glyph unicode="P" horiz-adv-x="921" d="M137 0v1350h363q82 0 154.5 -33t128 -88t87 -130t31.5 -161t-31.5 -161t-85 -130t-126 -87t-154.5 -32h-277v-528h-90zM227 618h277q63 0 118.5 26t97.5 69t66.5 101t24.5 124q0 68 -24.5 126t-66.5 101t-98.5 69t-119.5 26h-275v-642z" />
<glyph unicode="Q" horiz-adv-x="1574" d="M70 674q0 143 54 268t147.5 218t219 147.5t267.5 54.5q143 0 268 -54.5t218 -147.5t147.5 -218t54.5 -268q0 -190 -96.5 -349t-270.5 -257q106 -59 192.5 -94t135.5 -35q6 0 16.5 4t26.5 12l39 -84q-23 -8 -44.5 -14.5t-37.5 -6.5q-72 0 -184.5 46.5t-247.5 123.5 q-53 -18 -107.5 -26t-109.5 -8q-141 0 -267 54t-219.5 147.5t-147.5 219t-54 267.5zM160 674q0 -66 12 -123t37 -117q10 2 21.5 2h31.5q39 0 96.5 -8t127 -27.5t146.5 -55.5t154 -91q51 -37 99.5 -69.5t99.5 -63.5l8 4q7 0 11 4q166 86 259 228.5t93 316.5q0 125 -47 233.5 t-128 189.5t-189.5 128t-233.5 47t-233.5 -47t-189.5 -128t-128 -189.5t-47 -233.5zM256 346q82 -123 212 -196.5t290 -73.5q29 0 55.5 3t54.5 7q-33 23 -68.5 48.5t-68.5 49.5q-72 51 -140.5 83t-130 49.5t-112.5 23.5t-86 6h-6z" />
<glyph unicode="R" horiz-adv-x="1144" d="M139 0v1350h379q86 0 161 -35t130 -91.5t86 -130t31 -153.5q0 -127 -70 -232.5t-194 -150.5q49 -66 104 -137.5t110.5 -143t109.5 -142.5t104 -134h-115l-406 526h-340v-526h-90zM229 616h289q68 0 125 26t100 70t68 102t25 124t-25 124t-68 102t-100 70t-125 26h-289 v-644z" />
<glyph unicode="S" horiz-adv-x="1236" d="M197 66l36 75l56 -12q25 -6 59.5 -14.5t73.5 -16.5t77 -13t68 -5h86q72 0 137.5 20.5t115.5 58.5t80 94t30 130q0 33 -15.5 71t-33.5 62q-31 41 -69 65.5t-79 38t-84 18.5t-88 9q-72 4 -142.5 13.5t-137.5 50.5h2q-72 41 -119 116.5t-47 169.5q0 133 98 228.5t264 128.5 q23 4 70 8t110 4q33 0 75 -6t86 -16.5t86 -22.5t77 -27l-35 -84q-49 18 -92 29.5t-83 20t-79 11.5t-84 3q-68 0 -138.5 -16.5t-128.5 -50t-96 -86t-38 -126.5q0 -49 31.5 -108.5t79.5 -89.5q59 -37 119.5 -46.5t123.5 -13.5q72 -4 151 -19.5t148 -60.5q74 -47 118 -126.5 t44 -161.5q0 -92 -40 -164t-107.5 -121t-158.5 -73.5t-194 -24.5q-43 0 -95 6t-106.5 16t-108.5 25.5t-103 32.5z" />
<glyph unicode="T" horiz-adv-x="1183" d="M0 1260v90h1159v-90h-532v-1260h-90v1260h-537z" />
<glyph unicode="U" horiz-adv-x="1357" d="M123 506v844h90v-844q0 -90 35 -168t96.5 -136.5t144 -92t177.5 -33.5q92 0 174 33.5t143 92t96 136.5t35 168v844h90v-844q0 -106 -43 -201.5t-115.5 -166t-170.5 -111.5t-209 -41q-113 0 -211.5 41t-172 111.5t-116.5 165.5t-43 202z" />
<glyph unicode="V" horiz-adv-x="1275" d="M31 1323l84 35l510 -1188q25 55 58.5 135t74.5 174t84 195.5t86 199.5q98 229 207 484l79 -37l-589 -1378z" />
<glyph unicode="W" horiz-adv-x="2107" d="M78 1321l80 37l512 -1188q25 61 60.5 145t77.5 180.5t86 199t85 200.5l-170 401l82 35l137 -323q29 66 53.5 122t42.5 101q23 51 41 96l80 -37l-168 -395q41 -96 79 -185t76 -176.5t77 -175.5t82 -186q23 55 57.5 135t74.5 173t83 194.5t86 199.5q98 229 209 484l79 -37 l-589 -1378l-363 839l-358 -839z" />
<glyph unicode="X" horiz-adv-x="1404" d="M100 47l533 631q-129 152 -266.5 312.5t-266.5 312.5l62 61l526 -619l520 617l70 -55l-535 -629q131 -154 268.5 -317.5t266.5 -317.5l-72 -53l-518 618l-524 -624z" />
<glyph unicode="Y" horiz-adv-x="1110" d="M0 1335l82 39l459 -733l458 733l80 -39l-491 -792q0 -129 -1 -271.5t-1 -271.5h-90l-2 543z" />
<glyph unicode="Z" horiz-adv-x="1204" d="M-16 0l895 1260h-846v90h1022l-897 -1260h934v-90h-1108z" />
<glyph unicode="[" horiz-adv-x="530" d="M133 -201v1731h402v-90h-312v-1551h312v-90h-402z" />
<glyph unicode="\" horiz-adv-x="1083" d="M-29 1497h101l1018 -1497h-101z" />
<glyph unicode="]" horiz-adv-x="536" d="M-14 -111h311v1551h-311v90h401v-1731h-401v90z" />
<glyph unicode="_" horiz-adv-x="1331" d="M139 39h1022v-90h-1022v90z" />
<glyph unicode="`" horiz-adv-x="337" d="M-76 1655l154 -4l219 -164l39 -137z" />
<glyph unicode="a" horiz-adv-x="978" d="M35 14l442 1073q113 -264 223.5 -527t223.5 -542l-78 -20l-176 403h-377l-176 -407zM326 477h309l-158 406q-14 -37 -29.5 -77t-33 -88t-40 -106.5t-48.5 -134.5z" />
<glyph unicode="b" horiz-adv-x="983" d="M137 0v1077h414q59 0 110.5 -23.5t88 -62.5t57 -89t20.5 -105q0 -68 -33.5 -129.5t-86.5 -102.5q70 -39 110.5 -109.5t40.5 -154.5q0 -61 -22.5 -116.5t-62.5 -96.5t-93 -64.5t-115 -23.5h-428zM225 90h340q88 0 147.5 61.5t59.5 149.5q0 43 -16.5 83t-44 68.5t-65.5 46 t-81 17.5h-340v-426zM225 604h326q39 0 73.5 15.5t60.5 42t40 61.5t14 74q0 41 -14 75.5t-40 61.5t-60.5 41t-73.5 14h-326v-385z" />
<glyph unicode="c" horiz-adv-x="1067" d="M72 539q0 115 43 215t117.5 176t175 119t215.5 43q82 0 171 -33t177 -92l-72 -56q-133 90 -276 90q-96 0 -180.5 -35.5t-148 -99t-99 -147.5t-35.5 -180t35.5 -179.5t99 -145.5t147.5 -98t181 -36q82 0 163.5 32.5t153.5 92.5l61 -64q-86 -72 -182 -111.5t-196 -39.5 q-115 0 -215.5 43t-175 117.5t-117.5 174t-43 214.5z" />
<glyph unicode="d" horiz-adv-x="1122" d="M139 0v1077h330q113 0 211 -42t171 -115.5t115 -172t42 -210.5q0 -111 -42 -209.5t-115 -171t-171 -114.5t-211 -42h-330zM225 90h244q94 0 176 35t143.5 95.5t97.5 142.5t36 174q0 94 -36 176t-97.5 143.5t-143.5 97t-176 35.5h-244v-899z" />
<glyph unicode="e" horiz-adv-x="806" d="M137 0v1077h623v-88h-533v-311h359v-88h-359v-500h570v-90h-660z" />
<glyph unicode="f" horiz-adv-x="749" d="M137 0v1077h604v-88h-518v-315h410v-88h-410v-586h-86z" />
<glyph unicode="g" horiz-adv-x="1259" d="M96 541q0 113 44 213t119 176t173 119t207 43q53 0 111.5 -13.5t128.5 -42.5l-23 -92q-63 33 -117.5 45t-97.5 12q-96 0 -179 -38.5t-144.5 -102t-96.5 -147.5t-35 -172q0 -98 37 -182.5t100.5 -146.5t144.5 -97t171 -35q63 0 125.5 19.5t118 56.5t99.5 88t75 114v-2 q16 45 26.5 99.5t10.5 109.5v13h-392v90h476q0 -20 1 -52t1 -51q0 -61 -9.5 -128.5t-31.5 -114.5q-35 -74 -89.5 -134.5t-121 -104.5t-140 -68.5t-149.5 -24.5q-111 0 -210 44t-173 119.5t-117 176t-43 211.5z" />
<glyph unicode="h" horiz-adv-x="1146" d="M137 0v1077h90v-413h658v413h90v-1077h-90v573h-658v-573h-90z" />
<glyph unicode="i" horiz-adv-x="434" d="M129 0v1077h90v-1077h-90z" />
<glyph unicode="j" horiz-adv-x="573" d="M-12 -10v88q86 2 172 24.5t137 81.5q39 41 49 99.5t10 117.5v676h90v-676q0 -72 -16 -145.5t-65 -128.5l2 2q-66 -78 -167.5 -108.5t-211.5 -30.5z" />
<glyph unicode="k" horiz-adv-x="962" d="M139 0v1077h86v-461l533 474l63 -64l-510 -455l568 -522l-72 -57l-563 518l-19 -18v-492h-86z" />
<glyph unicode="l" horiz-adv-x="854" d="M137 0v1077h88v-987h617v-90h-705z" />
<glyph unicode="m" horiz-adv-x="1251" d="M141 0v1096l467 -582l467 578v-1092h-90v848l-149 -191l-228 -282l-381 475v-850h-86z" />
<glyph unicode="n" horiz-adv-x="1124" d="M137 0v1098l727 -875v840h88v-1073l-727 874v-864h-88z" />
<glyph unicode="o" horiz-adv-x="1388" d="M98 537q0 115 43 215t118 174.5t174 117.5t214 43t215.5 -43t174 -117.5t116.5 -175t43 -214.5q0 -115 -43 -214.5t-116.5 -174t-174 -117.5t-215.5 -43t-214 43t-174 117.5t-118 174t-43 214.5zM186 537q0 -96 36 -179.5t98.5 -145.5t146.5 -98t180 -36q94 0 178 36 t147.5 98t99.5 145.5t36 179.5t-36 180t-99.5 146.5t-147.5 98t-178 35.5q-96 0 -180 -35.5t-146.5 -98t-98.5 -146.5t-36 -180z" />
<glyph unicode="p" horiz-adv-x="858" d="M137 0v1077h352q68 0 126.5 -25.5t102.5 -70.5t69.5 -106.5t25.5 -131.5q0 -68 -25.5 -128t-68.5 -104t-101.5 -69.5t-125.5 -25.5h-267v-416h-88zM225 504h267q49 0 91 19.5t73.5 51t50 75.5t18.5 93q0 51 -18.5 96.5t-50 78t-74.5 52t-93 19.5h-264v-485z" />
<glyph unicode="q" horiz-adv-x="1259" d="M53 537q0 115 43 215t118 174.5t174 117.5t214 43t215.5 -43t174 -117.5t116.5 -174.5t43 -215q0 -147 -72.5 -271.5t-206.5 -204.5q78 -41 139.5 -66.5t100.5 -25.5q4 0 13.5 5.5t23.5 13.5l12 -80q-2 0 -6 -10.5t-8 -10.5q-16 -6 -35 -6q-59 0 -146 35t-194 98 q-39 -14 -82 -20t-88 -6q-115 0 -214 43t-174 117.5t-118 174t-43 214.5zM141 537q0 -43 10.5 -89.5t26.5 -87.5h35q31 0 77 -7t101 -23.5t115.5 -45t122.5 -71.5h-2q41 -29 77.5 -51.5t77.5 -48.5l9 4q129 66 199.5 177.5t70.5 242.5q0 96 -36 180t-97.5 146.5t-145.5 98 t-180 35.5t-179 -35.5t-146.5 -98t-99.5 -146.5t-36 -180zM227 272q61 -86 159.5 -140t215.5 -54q16 0 32.5 1t31.5 3q-23 12 -44.5 29.5t-43.5 33.5q-49 33 -100.5 55.5t-97.5 38t-86 23.5t-67 10zM782 111h2l4 2z" />
<glyph unicode="r" horiz-adv-x="970" d="M139 0v1077h305q72 0 132.5 -27.5t104.5 -73.5t68.5 -106.5t24.5 -124.5q0 -100 -52 -183t-149 -120l113 -143q25 -31 54.5 -71t60 -79.5t60.5 -78.5t52 -70h-112l-320 414h-256v-414h-86zM225 502h219q51 0 96.5 19.5t78 52t51 76.5t18.5 93q0 51 -18.5 96.5t-51 78 t-77.5 52t-97 19.5h-219v-487z" />
<glyph unicode="s" horiz-adv-x="851" d="M39 53l22 74q70 -16 147 -32.5t128 -16.5h67q55 0 106.5 14t89.5 44t60.5 73t22.5 98q0 29 -11.5 57.5t-25.5 47.5q-20 27 -50 45t-63.5 28.5t-68.5 16.5t-66 8q-55 2 -112.5 13.5t-110.5 39.5q-57 35 -96 97.5t-39 134.5q0 109 80 185.5t213 102.5q20 4 58 8.5t85 4.5 q25 0 57.5 -5.5t68.5 -14.5t71 -20.5t61 -21.5q-4 -18 -11 -37.5t-11 -38.5q-80 27 -142.5 39.5t-132.5 12.5q-53 0 -108.5 -12.5t-101.5 -39t-75.5 -67.5t-29.5 -98q0 -35 24.5 -80t63.5 -72q39 -25 78 -31t80 -10h14q6 0 11 -1t9 -1q53 -4 115 -17.5t123 -52.5 q55 -39 92 -102t37 -129q0 -74 -31.5 -131t-86 -96t-127 -59.5t-154.5 -20.5q-35 0 -76 5t-86 14t-88 20.5t-80 23.5z" />
<glyph unicode="t" horiz-adv-x="956" d="M2 989v88h928v-88h-418v-989h-90v989h-420z" />
<glyph unicode="u" horiz-adv-x="1144" d="M123 406v671h86v-671q0 -68 27.5 -128.5t74.5 -104.5t111.5 -69.5t136.5 -25.5q70 0 132.5 25.5t109.5 69.5t73.5 104.5t26.5 128.5v671h90v-671q0 -86 -34.5 -162t-93 -133.5t-137.5 -90t-167 -32.5q-90 0 -169 32.5t-138 90t-94 133t-35 162.5z" />
<glyph unicode="v" horiz-adv-x="1044" d="M31 1055l84 24l393 -872q20 49 48 111.5t59.5 133t65.5 144.5t64 143q74 162 156 338l88 -18l-481 -1077z" />
<glyph unicode="w" horiz-adv-x="1720" d="M55 1057l86 22l396 -917q61 143 116.5 274t116.5 277q-4 10 -7 19t-7 20v-2q-29 63 -63 143t-60 141l84 25l100 -238q23 53 40 95t32 75q16 37 29 68l86 -25l-136 -323q35 -86 72 -173t76 -173l86 -199q20 49 48 114.5t59.5 138.5t65.5 150.5t64 151.5q74 172 156 358 l86 -22l-479 -1112l-283 655l-100 -231l-182 -426z" />
<glyph unicode="x" horiz-adv-x="1177" d="M100 45l416 498q-100 119 -208.5 244.5t-207.5 242.5l62 62l409 -486l412 484l64 -60l-418 -487q100 -123 209.5 -251t208.5 -247l-62 -61l-412 485q-96 -117 -205.5 -245t-203.5 -242z" />
<glyph unicode="y" horiz-adv-x="833" d="M6 1059l78 37l322 -566l321 566l78 -37l-359 -623v-436h-88l2 436z" />
<glyph unicode="z" horiz-adv-x="909" d="M-14 0l706 991h-661v86h831l-708 -989h727v-88h-895z" />
<glyph unicode="{" horiz-adv-x="407" d="M2 612q29 47 46.5 98.5t28.5 104.5t16 105.5t9 101.5q6 74 16.5 148.5t35 147.5t69.5 137.5t121 115.5l39 -70l-4 -28q-63 -39 -99 -92.5t-55.5 -116t-27 -132t-11.5 -139.5q-8 -96 -20 -196.5t-53 -184.5q41 -84 54 -184t21 -197q4 -72 11.5 -141.5t29 -132.5 t60.5 -119.5t108 -99.5l-53 -82q-78 51 -123 116.5t-69.5 137.5t-33.5 146.5t-16 146.5q0 6 -1 13t-1 13q-4 45 -9 94.5t-15 98.5t-27.5 97t-46.5 93z" />
<glyph unicode="|" horiz-adv-x="434" d="M129 -266v1763h90v-1763h-90z" />
<glyph unicode="}" horiz-adv-x="409" d="M6 -262q70 45 109 101.5t59.5 120t27.5 132t13 139.5q6 96 19.5 196.5t54.5 184.5q-41 84 -53.5 185.5t-18.5 195.5q-6 70 -13 138.5t-27.5 132t-59.5 119t-107 98.5l49 92q76 -53 121 -118.5t69.5 -137.5t35 -146.5t16.5 -148.5q0 -8 1 -13t1 -14q8 -92 24.5 -192.5 t73.5 -190.5q-61 -96 -76.5 -202.5t-23.5 -206.5q-6 -72 -16.5 -147.5t-35 -148.5t-69.5 -137.5t-121 -113.5z" />
<glyph horiz-adv-x="0" />
<glyph unicode="&#xa1;" horiz-adv-x="333" d="M37 746q1 -52 54 -52q20 0 34.5 14.5t14.5 37.5q0 29 -14.5 41t-34.5 12q-53 0 -54 -53zM45 -541h91v1166h-91v-1166z" />
<glyph unicode="&#xa2;" horiz-adv-x="1040" d="M74 686q0 16 1 31.5t1 32.5q14 104 62 192t121 152.5t165 101.5t194 37h48l34 117h97l-41 -133q61 -14 117.5 -44t115.5 -77l-57 -76q-49 41 -100.5 66.5t-100.5 39.5q-59 -225 -117.5 -440t-119.5 -442q63 -18 127 -19q82 0 164.5 34t158.5 97l55 -80 q-86 -72 -182 -107.5t-194 -35.5q-76 0 -154 23q-10 -37 -21.5 -80t-21.5 -76h-94l55 186q-74 33 -132 86.5t-98 118t-61.5 140t-21.5 155.5zM168 735q-6 -70 8 -136.5t45 -126.5t78 -109.5t109 -81.5l233 858q-88 2 -168 -28t-143.5 -85t-106.5 -130t-55 -161z" />
<glyph unicode="&#xa3;" horiz-adv-x="1282" d="M31 86q57 63 126.5 96t135.5 45q23 66 36 129.5t13 137.5q0 43 -6 90v2l-4 35h-172v90h155q-10 59 -19 122.5t-9 129.5q0 86 32.5 158.5t89 123.5t131 80t158.5 29q123 0 216.5 -68.5t164.5 -171.5l-78 -55q-53 98 -140 151.5t-179 53.5q-72 0 -128 -27t-95 -72 t-59.5 -105.5t-20.5 -127.5q0 -39 7 -88t22 -133h434v-90h-416q6 -33 8 -69t2 -71q0 -66 -11 -130t-34 -124q66 -12 128.5 -35.5t115.5 -46.5q72 -29 129 -46t106 -17q66 0 133.5 31.5t159.5 97.5l60 -70q-94 -76 -178 -112.5t-168 -36.5q-66 0 -134.5 19.5t-144.5 56.5 q-59 29 -120.5 51t-125.5 22q-78 0 -134 -29.5t-128 -86.5z" />
<glyph unicode="&#xa4;" horiz-adv-x="942" d="M127 131v1092h121v127h90v-127h102v127h90v-127h15q57 0 108.5 -23.5t89 -63.5t59 -91.5t21.5 -106.5q0 -72 -30.5 -135.5t-87.5 -104.5q70 -39 110.5 -108.5t40.5 -155.5q0 -61 -23.5 -116.5t-64.5 -97.5t-95.5 -65.5t-117.5 -23.5h-25v-129h-90v129h-102v-129h-90v129 h-121zM215 221h340q45 0 84 16.5t67.5 46t45 68.5t16.5 82q0 92 -60.5 155.5t-152.5 63.5h-340v-432zM215 741h330q39 0 73.5 15.5t60.5 43t40 62.5t14 76t-14 77t-40 62.5t-60.5 42t-73.5 15.5h-330v-394z" />
<glyph unicode="&#xa5;" horiz-adv-x="1132" d="M20 1307l70 57l461 -586l465 586l71 -57l-432 -547h285v-90h-340v-135h340v-91h-340v-442h-92v442h-342v91h342v135h-342v90h287q-104 135 -216 275.5t-217 271.5z" />
<glyph unicode="&#xa6;" horiz-adv-x="362" d="M129 -266v753h90v-753h-90zM129 741v756h90v-756h-90z" />
<glyph unicode="&#xa7;" horiz-adv-x="974" d="M86 776q0 61 42 117.5t99 91.5q-27 25 -46 58.5t-23 86.5v13q0 68 30.5 110.5t73.5 69.5t90 37t82 12h19q74 0 141.5 -24.5t119.5 -70.5t84.5 -110.5t37.5 -142.5q0 -16 -1 -36.5t-8 -49.5l-90 -4q4 29 5 47t1 39q-4 57 -28.5 105.5t-63.5 83t-91 54t-109 19.5h-15 q-27 -2 -58.5 -10t-59 -23.5t-47 -41t-19.5 -60.5v-12q2 -35 21.5 -61.5t49 -48t66.5 -38t76 -33.5q25 -10 49.5 -21t46.5 -22q92 -47 151.5 -85t94.5 -74.5t49 -74.5t16 -83v-8q0 -70 -49 -122t-104 -81q45 -41 62.5 -86t17.5 -86q0 -57 -24.5 -98t-66.5 -69t-95.5 -42 t-108.5 -16h-21q-76 0 -145.5 27.5t-121.5 75.5t-83 114.5t-31 144.5q0 10 1 25.5t6 42.5h92q-4 -23 -6 -42.5t-2 -31.5q0 -47 22.5 -95t61 -86t92 -61.5t116.5 -23.5h15q55 2 94 16t63.5 34.5t36 42t11.5 40.5q0 35 -10.5 59.5t-41 50t-87 56.5t-150.5 78l-127 65 q-37 18 -73 43t-64.5 55.5t-47 70.5t-18.5 89zM180 760q0 -14 6.5 -32.5t23.5 -40t47 -45.5t79 -48l96 -49q72 -37 120 -60.5t83 -46.5q23 8 48.5 22.5t47 33t35.5 41t14 51.5v8q-2 31 -15 57.5t-44 54t-81 58.5t-126 67h2l-57 27q-39 20 -62.5 32.5t-39 20t-24.5 10.5 t-18 7q-16 -6 -39.5 -20.5t-45 -35t-36 -47t-14.5 -59.5v-6z" />
<glyph unicode="&#xa8;" horiz-adv-x="593" d="M127 1495q0 23 15 40t40 17q29 0 44.5 -17t15.5 -40q0 -27 -15.5 -43t-44.5 -16q-25 0 -40 16t-15 43zM342 1495q0 23 15 40t42 17t42.5 -17t15.5 -40q0 -27 -15.5 -43t-42.5 -16t-42 16t-15 43z" />
<glyph unicode="&#xa9;" horiz-adv-x="716" d="M111 1184q0 49 19.5 93t53 78t77.5 53t93 19t93.5 -19t77 -53t52 -78t19.5 -93t-19.5 -94.5t-52 -78t-77 -52t-93.5 -19.5t-93 19.5t-77.5 52t-53 78t-19.5 94.5zM168 1184q0 -78 54 -132.5t132 -54.5t131.5 54.5t53.5 132.5t-53.5 132t-131.5 54t-132 -54t-54 -132z M209 1182q0 29 13.5 55.5t35 47t49 32.5t55.5 12q16 0 39 -7t52 -24l-17 -55q-29 20 -46 27.5t-28 7.5q-35 0 -67.5 -30.5t-32.5 -65.5q0 -37 28.5 -62.5t69.5 -25.5q35 0 76 26l31 -45q-29 -23 -54.5 -30t-50.5 -7q-70 0 -111.5 43t-41.5 101z" />
<glyph unicode="&#xaa;" horiz-adv-x="1064" d="M72 1004q0 76 29.5 143t79.5 117.5t118 79t143 28.5q180 0 283 -129v129h88v-426q0 -43 4 -84t18.5 -79t42 -73.5t74.5 -66.5v-96q-96 53 -145 118.5t-66 116.5q-29 -39 -66.5 -66.5t-79.5 -45t-82 -25.5t-73 -8q-76 2 -143.5 31.5t-117.5 79t-78.5 115t-28.5 141.5z M160 1004q0 -57 22.5 -108.5t61.5 -89.5t90 -60.5t108 -22.5t109.5 22.5t90.5 60.5t60.5 89.5t22.5 108.5t-22.5 108t-60.5 89t-90 59.5t-110 21.5q-57 0 -108 -21.5t-90 -59.5t-61.5 -89t-22.5 -108z" />
<glyph unicode="&#xab;" horiz-adv-x="987" d="M25 688l448 567v-18t1 -34.5t1 -36v-19.5v-29l-340 -430l101 -125l239 -301q0 -6 -1 -16t-1 -15v-104zM397 688l447 567v-18t1 -34.5t1 -36v-19.5v-29l-338 -430l100 -125l238 -301q0 -6 -1 -16t-1 -15v-104z" />
<glyph unicode="&#xac;" horiz-adv-x="1247" d="M-8 674v90h1085v-621h-90v531h-995z" />
<glyph unicode="&#xad;" horiz-adv-x="1136" d="M139 567v90h871v-90h-871z" />
<glyph unicode="&#xae;" horiz-adv-x="716" d="M111 1184q0 49 19.5 93t53 78t77.5 53t93 19t93.5 -19t77 -53t52 -78t19.5 -93t-19.5 -94.5t-52 -78t-77 -52t-93.5 -19.5t-93 19.5t-77.5 52t-53 78t-19.5 94.5zM168 1184q0 -78 54 -132.5t132 -54.5q37 0 69 12.5t56 32.5h-43l-94 97h-18v-95h-56v287h90 q39 0 63.5 -27.5t33.5 -66.5q0 -53 -43 -84l57 -59l31 -27q16 25 27.5 53.5t11.5 63.5q0 78 -53.5 132t-131.5 54t-132 -54t-54 -132zM324 1194h34q16 0 28.5 11.5t12.5 25.5q0 16 -12 31.5t-29 15.5h-34v-84z" />
<glyph unicode="&#xb0;" horiz-adv-x="393" d="M88 1393q0 43 31 73.5t74 30.5q45 0 73.5 -30.5t28.5 -73.5q0 -45 -28.5 -74t-73.5 -29q-43 0 -74 29t-31 74zM170 1393q0 -20 23 -21q23 0 22 21q0 23 -22 22q-23 1 -23 -22z" />
<glyph unicode="&#xb1;" horiz-adv-x="514" d="M-10 385v86h522v-86h-522zM-10 741v86h221v209h86v-209h215v-86h-215v-223h-86v223h-221z" />
<glyph unicode="&#xb2;" horiz-adv-x="688" d="M78 1243q2 51 21.5 97t51 81t73.5 55.5t91 20.5q47 0 91.5 -18.5t79 -50t55 -73.5t20.5 -89q0 -51 -22.5 -95.5t-63.5 -76.5q49 -29 83 -78t34 -113q0 -53 -21.5 -101t-58.5 -85t-86 -59.5t-104 -22.5q-74 0 -142.5 50t-99.5 146l96 3q16 -53 57 -82t89 -29 q35 0 67.5 15.5t57 40t40 58t15.5 70.5q0 59 -48 94t-108 35q-4 0 -12 -1t-43 -11v111q76 0 127 36.5t53 90.5q-2 31 -15.5 58.5t-35 46.5t-49 30.5t-58.5 11.5q-53 0 -97 -47t-44 -117z" />
<glyph unicode="&#xb3;" horiz-adv-x="628" d="M61 649l377 514l-2 -2q29 45 29 88q0 59 -39 107.5t-98 52.5h-9q-55 0 -96 -46t-41 -106q0 -14 11 -65l-93 2q-4 18 -6 34.5t-2 31.5q0 47 19.5 91t51.5 76.5t75 52t90 19.5q49 0 91 -21.5t71.5 -57.5t47 -80t17.5 -91q0 -35 -12.5 -71.5t-34.5 -67.5l-141 -192 q-20 -27 -36 -48.5t-31 -41t-31.5 -42t-35.5 -49.5h359v-88h-531z" />
<glyph unicode="&#xb4;" horiz-adv-x="337" d="M-12 1343l45 142l221 166l152 4z" />
<glyph unicode="&#xb6;" horiz-adv-x="1257" d="M57 1008q0 98 29 182t84 143.5t138 93t194 33.5h641v-92h-123v-1444h-92v1444h-365v-1444h-92v643q-98 6 -175 46t-130 101.5t-81 138.5t-28 155z" />
<glyph unicode="&#xb7;" horiz-adv-x="321" d="M98 659q0 25 15.5 42.5t40.5 17.5q29 0 44 -17.5t15 -42.5q0 -57 -59 -57q-25 0 -40.5 15.5t-15.5 41.5z" />
<glyph unicode="&#xb8;" horiz-adv-x="436" d="M16 -246l82 21q18 -51 43 -80t66 -29q35 0 55.5 25.5t20.5 60.5q0 23 -18.5 45.5t-43.5 30.5q-10 0 -30.5 2t-26.5 2v221h88v-141q55 -14 88 -61.5t33 -102.5q0 -72 -47 -121t-119 -49q-68 0 -122 49t-69 127z" />
<glyph unicode="&#xb9;" horiz-adv-x="432" d="M-27 1104l308 450v-929h-91v647l-147 -217z" />
<glyph unicode="&#xbb;" horiz-adv-x="991" d="M121 212v19v31l239 301l101 125l-340 430v29v18.5t1 35t1 34.5v18l446 -565l-446 -561v17.5t-1 34t-1 33.5zM494 212v19v31l239 301l101 125l-340 430v29v18.5t1 35t1 34.5v18l446 -565l-446 -561v17.5t-1 34t-1 33.5z" />
<glyph unicode="&#xbc;" horiz-adv-x="1576" d="M76 1104l307 450v-929h-90v647l-148 -217zM168 0l1018 1497h100l-1018 -1497h-100zM719 172l586 766v-676h161v-90h-161v-172h-88v172h-498zM901 262h316v414q-43 -55 -81 -105.5t-75 -99.5t-76 -100.5t-84 -108.5z" />
<glyph unicode="&#xbd;" horiz-adv-x="1509" d="M74 1104l307 450v-929h-90v647l-150 -217zM166 0l1018 1497h100l-1018 -1497h-100zM870 0l377 516l-2 -2q12 20 20.5 42.5t8.5 45.5q0 57 -40 105.5t-99 52.5h-9q-53 0 -95 -45t-42 -107q0 -4 3 -22.5t7 -40.5l-92 2q-4 16 -6 33.5t-2 29.5q0 49 19.5 92t52.5 76 t74.5 52.5t89.5 19.5q49 0 91 -21.5t72.5 -56.5t48 -79t17.5 -91q0 -74 -49 -139l-141 -195q-18 -27 -35 -47t-32 -40.5t-31.5 -43t-35.5 -49.5h359v-88h-529z" />
<glyph unicode="&#xbe;" horiz-adv-x="1736" d="M88 1243q2 51 21.5 97t51.5 81t73.5 55.5t91.5 20.5q74 0 139 -45t92 -115v2q8 -16 11 -35.5t3 -37.5q0 -51 -22.5 -95.5t-63.5 -76.5q49 -29 82 -78t33 -113q0 -53 -21.5 -101t-58.5 -85t-86 -59.5t-104 -22.5q-72 0 -140.5 50t-99.5 146l96 3q14 -53 55.5 -82t88.5 -29 q35 0 67.5 15.5t57 40t40 58t15.5 70.5q0 53 -44 91t-104 38q-6 0 -16 -1t-45 -7v107h37q59 0 101 37.5t42 91.5v10q-2 27 -16 51.5t-35.5 42.5t-48.5 29.5t-57 11.5q-27 0 -52.5 -12.5t-45 -35t-32 -52t-12.5 -64.5zM283 0l1017 1497h101l-1020 -1497h-98zM870 172l586 766 v-676h164v-90h-164v-172h-88v172h-498zM1053 262h315v414q-41 -55 -79 -105.5t-74.5 -99.5t-76.5 -100.5t-85 -108.5z" />
<glyph unicode="&#xbf;" horiz-adv-x="1302" d="M135 -89q0 86 32 170t91 152t142 115t184 59v266h92v-352h-43q-86 -6 -161 -44t-129 -94.5t-85 -127t-31 -144.5q0 -63 23.5 -125.5t73.5 -115.5q59 -66 130.5 -93.5t147.5 -27.5q78 0 153.5 29.5t136 84t100.5 127t46 158.5l97 -4q-10 -104 -59.5 -193t-123 -153.5 t-165 -101.5t-187.5 -37t-188 38t-166 124q-57 66 -84 140.5t-27 149.5zM573 790q0 29 17.5 43t39 14t39 -14t17.5 -43t-17.5 -43t-39 -14t-39 14t-17.5 43z" />
<glyph unicode="&#xc0;" d="M31 -2l553 1376l555 -1370q-23 -4 -42.5 -11t-41.5 -11l-232 548h-483l-113 -276q-29 -70 -57.5 -140.5t-54.5 -136.5q-10 2 -21.5 4.5t-23.5 6.5zM364 1655l154 -4l219 -164l39 -137zM373 608h415q-8 18 -16 43t-16 47q-23 57 -43.5 111.5t-40.5 110.5l-88 241z" />
<glyph unicode="&#xc1;" d="M31 -2l553 1376l555 -1370q-23 -4 -42.5 -11t-41.5 -11l-232 548h-483l-113 -276q-29 -70 -57.5 -140.5t-54.5 -136.5q-10 2 -21.5 4.5t-23.5 6.5zM373 608h415q-8 18 -16 43t-16 47q-23 57 -43.5 111.5t-40.5 110.5l-88 241zM400 1345l45 142l221 166l152 4z" />
<glyph unicode="&#xc2;" d="M31 -2l553 1376l555 -1370q-23 -4 -42.5 -11t-41.5 -11l-232 548h-483l-113 -276q-29 -70 -57.5 -140.5t-54.5 -136.5q-10 2 -21.5 4.5t-23.5 6.5zM287 1337l45 144l221 170h74l221 -166l37 -133l-295 213zM373 608h415q-8 18 -16 43t-16 47q-23 57 -43.5 111.5 t-40.5 110.5l-88 241z" />
<glyph unicode="&#xc3;" d="M31 -2l553 1376l555 -1370q-23 -4 -42.5 -11t-41.5 -11l-232 548h-483l-113 -276q-29 -70 -57.5 -140.5t-54.5 -136.5q-10 2 -21.5 4.5t-23.5 6.5zM319 1467q35 78 72 107.5t76 29.5q33 0 68.5 -16.5t68.5 -34.5q25 -12 52.5 -25.5t49.5 -13.5q16 0 33 19.5t37 66.5 l80 -41q-35 -78 -70.5 -107.5t-74.5 -29.5q-33 0 -69 17t-69 34q-25 14 -53.5 26.5t-48.5 12.5q-16 0 -31.5 -17.5t-36.5 -66.5zM373 608h415q-8 18 -16 43t-16 47q-23 57 -43.5 111.5t-40.5 110.5l-88 241z" />
<glyph unicode="&#xc4;" d="M31 -2l553 1376l555 -1370q-23 -4 -42.5 -11t-41.5 -11l-232 548h-483l-113 -276q-29 -70 -57.5 -140.5t-54.5 -136.5q-10 2 -21.5 4.5t-23.5 6.5zM373 608h415q-8 18 -16 43t-16 47q-23 57 -43.5 111.5t-40.5 110.5l-88 241zM420 1497q0 23 15 40t40 17q29 0 44.5 -17 t15.5 -40q0 -27 -15.5 -43t-44.5 -16q-25 0 -40 16t-15 43zM635 1497q0 23 15 40t42 17t42.5 -17t15.5 -40q0 -27 -15.5 -43t-42.5 -16t-42 16t-15 43z" />
<glyph unicode="&#xc5;" d="M31 -2l553 1376l555 -1370q-23 -4 -42.5 -11t-41.5 -11l-232 548h-483l-113 -276q-29 -70 -57.5 -140.5t-54.5 -136.5q-10 2 -21.5 4.5t-23.5 6.5zM373 608h415q-8 18 -16 43t-16 47q-23 57 -43.5 111.5t-40.5 110.5l-88 241zM508 1448q0 33 21.5 54t54.5 21t54.5 -21.5 t21.5 -53.5q0 -33 -21.5 -54.5t-54.5 -21.5t-54.5 21.5t-21.5 54.5zM557 1448q0 -27 27 -27t27 27t-27 26q-27 1 -27 -26z" />
<glyph unicode="&#xc6;" horiz-adv-x="1884" d="M41 45l872 1305h861v-88h-676v-443h563v-90h-563v-641h723v-88h-813v461h-582l-311 -471zM483 551h525v711h-50q-63 -94 -121.5 -181.5t-115.5 -173.5t-115.5 -174t-122.5 -182z" />
<glyph unicode="&#xc7;" horiz-adv-x="1245" d="M121 676q0 92 24.5 182t75.5 174q49 80 114.5 141.5t142.5 103.5t162 64.5t171 22.5q92 0 188.5 -29.5t194.5 -89.5l-53 -74q-86 53 -170 78t-162 25q-154 0 -289 -74t-221 -215q-47 -74 -67.5 -151.5t-20.5 -157.5q0 -154 74.5 -290t216.5 -222q72 -43 149.5 -64.5 t157.5 -21.5q90 0 181 30.5t181 94.5l54 -76q-102 -72 -208 -105.5t-206 -33.5h-37.5t-36.5 2v-56q57 -12 90 -60t33 -103q0 -72 -48 -120t-120 -48q-68 0 -123 44t-65 132l92 20v-41l14 -28l-2 2q12 -20 35.5 -30.5t48.5 -10.5q35 0 56.5 24.5t21.5 59.5q0 23 -19.5 46 t-41.5 29q-12 0 -33 2.5t-27 2.5v149q-109 29 -196 84q-78 49 -139.5 115.5t-104.5 143.5t-65.5 161t-22.5 168z" />
<glyph unicode="&#xc8;" horiz-adv-x="964" d="M137 0v1350h770v-90h-680v-420h459v-90h-459v-660h727v-90h-817zM272 1663l154 -4l219 -164l39 -137z" />
<glyph unicode="&#xc9;" horiz-adv-x="964" d="M137 0v1350h770v-90h-680v-420h459v-90h-459v-660h727v-90h-817zM301 1363l45 142l221 166l152 4z" />
<glyph unicode="&#xca;" horiz-adv-x="964" d="M137 0v1350h770v-90h-680v-420h459v-90h-459v-660h727v-90h-817zM209 1380l45 144l221 170h74l221 -166l37 -133l-295 213z" />
<glyph unicode="&#xcb;" horiz-adv-x="964" d="M137 0v1350h770v-90h-680v-420h459v-90h-459v-660h727v-90h-817zM336 1495q0 23 15 40t40 17q29 0 44.5 -17t15.5 -40q0 -27 -15.5 -43t-44.5 -16q-25 0 -40 16t-15 43zM551 1495q0 23 15 40t42 17t42.5 -17t15.5 -40q0 -27 -15.5 -43t-42.5 -16t-42 16t-15 43z" />
<glyph unicode="&#xcc;" horiz-adv-x="686" d="M147 1655l154 -4l219 -164l39 -137zM328 0v1350h90v-1350h-90z" />
<glyph unicode="&#xcd;" horiz-adv-x="686" d="M170 1341l45 142l221 166l152 4zM317 0v1350h90v-1350h-90z" />
<glyph unicode="&#xce;" horiz-adv-x="915" d="M146 1335l45 144l221 170h74l221 -166l37 -133l-295 213zM405 0v1350h90v-1350h-90z" />
<glyph unicode="&#xcf;" horiz-adv-x="686" d="M133 1495q0 23 15 40t40 17q29 0 44.5 -17t15.5 -40q0 -27 -15.5 -43t-44.5 -16q-25 0 -40 16t-15 43zM256 0v1350h90v-1350h-90zM348 1495q0 23 15 40t42 17t42.5 -17t15.5 -40q0 -27 -15.5 -43t-42.5 -16t-42 16t-15 43z" />
<glyph unicode="&#xd0;" horiz-adv-x="1429" d="M86 711v90h139v549h410q139 0 262 -53.5t214 -145.5t144.5 -215t53.5 -262t-53.5 -262t-144.5 -214.5t-214 -144.5t-262 -53h-410v711h-139zM315 90h320q121 0 227.5 46t186 125t126 185.5t46.5 227.5t-46.5 228.5t-126 187t-186 126t-227.5 46.5h-320v-461h525v-90h-525 v-621z" />
<glyph unicode="&#xd1;" horiz-adv-x="1372" d="M223 0v1413l926 -1229v1166h90v-1434l-926 1229v-1145h-90zM467 1452q35 78 72 107.5t76 29.5q33 0 68.5 -16.5t68.5 -34.5q25 -12 52.5 -25.5t49.5 -13.5q16 0 33 19.5t37 66.5l80 -41q-35 -78 -70.5 -107.5t-74.5 -29.5q-33 0 -69 17t-69 34q-25 14 -53.5 26.5 t-48.5 12.5q-16 0 -31.5 -17.5t-36.5 -66.5z" />
<glyph unicode="&#xd2;" horiz-adv-x="1601" d="M96 674q0 143 54.5 268t147.5 218t218 147.5t268 54.5q141 0 266.5 -54.5t218.5 -147.5t147 -218t54 -268q0 -141 -54 -267t-147 -219.5t-218 -147.5t-267 -54q-143 0 -268 54t-218 147.5t-147.5 219t-54.5 267.5zM186 674q0 -123 47.5 -232.5t128 -190.5t189 -128 t233.5 -47q123 0 231.5 47t189.5 128t128 190.5t47 232.5q0 125 -47 233.5t-128 189.5t-189.5 128t-231.5 47q-125 0 -233.5 -47t-189 -128t-128 -189.5t-47.5 -233.5zM583 1653l154 -4l219 -164l39 -137z" />
<glyph unicode="&#xd3;" horiz-adv-x="1601" d="M96 674q0 143 54.5 268t147.5 218t218 147.5t268 54.5q141 0 266.5 -54.5t218.5 -147.5t147 -218t54 -268q0 -141 -54 -267t-147 -219.5t-218 -147.5t-267 -54q-143 0 -268 54t-218 147.5t-147.5 219t-54.5 267.5zM186 674q0 -123 47.5 -232.5t128 -190.5t189 -128 t233.5 -47q123 0 231.5 47t189.5 128t128 190.5t47 232.5q0 125 -47 233.5t-128 189.5t-189.5 128t-231.5 47q-125 0 -233.5 -47t-189 -128t-128 -189.5t-47.5 -233.5zM588 1396l45 142l221 166l152 4z" />
<glyph unicode="&#xd4;" horiz-adv-x="1601" d="M96 674q0 143 54.5 268t147.5 218t218 147.5t268 54.5q141 0 266.5 -54.5t218.5 -147.5t147 -218t54 -268q0 -141 -54 -267t-147 -219.5t-218 -147.5t-267 -54q-143 0 -268 54t-218 147.5t-147.5 219t-54.5 267.5zM186 674q0 -123 47.5 -232.5t128 -190.5t189 -128 t233.5 -47q123 0 231.5 47t189.5 128t128 190.5t47 232.5q0 125 -47 233.5t-128 189.5t-189.5 128t-231.5 47q-125 0 -233.5 -47t-189 -128t-128 -189.5t-47.5 -233.5zM492 1337l45 144l221 170h74l221 -166l37 -133l-295 213z" />
<glyph unicode="&#xd5;" horiz-adv-x="1601" d="M96 674q0 143 54.5 268t147.5 218t218 147.5t268 54.5q141 0 266.5 -54.5t218.5 -147.5t147 -218t54 -268q0 -141 -54 -267t-147 -219.5t-218 -147.5t-267 -54q-143 0 -268 54t-218 147.5t-147.5 219t-54.5 267.5zM186 674q0 -123 47.5 -232.5t128 -190.5t189 -128 t233.5 -47q123 0 231.5 47t189.5 128t128 190.5t47 232.5q0 125 -47 233.5t-128 189.5t-189.5 128t-231.5 47q-125 0 -233.5 -47t-189 -128t-128 -189.5t-47.5 -233.5zM534 1465q35 78 72 107.5t76 29.5q33 0 68.5 -16.5t68.5 -34.5q25 -12 52.5 -25.5t49.5 -13.5 q16 0 33 19.5t37 66.5l80 -41q-35 -78 -70.5 -107.5t-74.5 -29.5q-33 0 -69 17t-69 34q-25 14 -53.5 26.5t-48.5 12.5q-16 0 -31.5 -17.5t-36.5 -66.5z" />
<glyph unicode="&#xd6;" horiz-adv-x="1601" d="M96 674q0 143 54.5 268t147.5 218t218 147.5t268 54.5q141 0 266.5 -54.5t218.5 -147.5t147 -218t54 -268q0 -141 -54 -267t-147 -219.5t-218 -147.5t-267 -54q-143 0 -268 54t-218 147.5t-147.5 219t-54.5 267.5zM186 674q0 -123 47.5 -232.5t128 -190.5t189 -128 t233.5 -47q123 0 231.5 47t189.5 128t128 190.5t47 232.5q0 125 -47 233.5t-128 189.5t-189.5 128t-231.5 47q-125 0 -233.5 -47t-189 -128t-128 -189.5t-47.5 -233.5zM627 1497q0 23 15 40t40 17q29 0 44.5 -17t15.5 -40q0 -27 -15.5 -43t-44.5 -16q-25 0 -40 16t-15 43z M842 1497q0 23 15 40t42 17t42.5 -17t15.5 -40q0 -27 -15.5 -43t-42.5 -16t-42 16t-15 43z" />
<glyph unicode="&#xd7;" horiz-adv-x="956" d="M82 244l326 370l-320 369l82 37l295 -340l301 340l82 -37l-326 -367q123 -141 204 -230t130 -142l-92 -27l-297 336l-295 -336z" />
<glyph unicode="&#xd8;" horiz-adv-x="1527" d="M63 672q0 143 54.5 268t147.5 218t218 147.5t269 54.5q51 0 100 -7t100 -24l95 238h94l-109 -269q90 -41 165 -103t129 -143t84 -177.5t30 -202.5q0 -141 -54.5 -267t-147.5 -219.5t-219 -147.5t-267 -54q-121 0 -226 36q-27 -66 -53.5 -136t-54.5 -134h-94l122 305 q-84 43 -154.5 106.5t-121.5 143.5t-79 173t-28 194zM154 672q0 -86 23.5 -166t66.5 -149.5t102.5 -125t130.5 -92.5l438 1106q-79 25 -163 25q-125 0 -233.5 -47t-189.5 -128t-128 -189.5t-47 -233.5zM557 104q47 -16 94 -24t101 -8q125 0 233.5 47t190 129t129 191.5 t47.5 232.5q0 90 -27 173t-74 153.5t-111.5 126t-142.5 89.5q-113 -287 -220 -555t-220 -555z" />
<glyph unicode="&#xd9;" horiz-adv-x="1357" d="M123 506v844h90v-844q0 -90 35 -168t96.5 -136.5t144 -92t177.5 -33.5q92 0 174 33.5t143 92t96 136.5t35 168v844h90v-844q0 -106 -43 -201.5t-115.5 -166t-170.5 -111.5t-209 -41q-113 0 -211.5 41t-172 111.5t-116.5 165.5t-43 202zM454 1653l154 -4l219 -164l39 -137 z" />
<glyph unicode="&#xda;" horiz-adv-x="1357" d="M123 506v844h90v-844q0 -90 35 -168t96.5 -136.5t144 -92t177.5 -33.5q92 0 174 33.5t143 92t96 136.5t35 168v844h90v-844q0 -106 -43 -201.5t-115.5 -166t-170.5 -111.5t-209 -41q-113 0 -211.5 41t-172 111.5t-116.5 165.5t-43 202zM488 1341l45 142l221 166l152 4z " />
<glyph unicode="&#xdb;" horiz-adv-x="1357" d="M123 506v844h90v-844q0 -90 35 -168t96.5 -136.5t144 -92t177.5 -33.5q92 0 174 33.5t143 92t96 136.5t35 168v844h90v-844q0 -106 -43 -201.5t-115.5 -166t-170.5 -111.5t-209 -41q-113 0 -211.5 41t-172 111.5t-116.5 165.5t-43 202zM375 1335l45 144l221 170h74 l221 -166l37 -133l-295 213z" />
<glyph unicode="&#xdc;" horiz-adv-x="1357" d="M123 506v844h90v-844q0 -90 35 -168t96.5 -136.5t144 -92t177.5 -33.5q92 0 174 33.5t143 92t96 136.5t35 168v844h90v-844q0 -106 -43 -201.5t-115.5 -166t-170.5 -111.5t-209 -41q-113 0 -211.5 41t-172 111.5t-116.5 165.5t-43 202zM514 1497q0 23 15 40t40 17 q29 0 44.5 -17t15.5 -40q0 -27 -15.5 -43t-44.5 -16q-25 0 -40 16t-15 43zM729 1497q0 23 15 40t42 17t42.5 -17t15.5 -40q0 -27 -15.5 -43t-42.5 -16t-42 16t-15 43z" />
<glyph unicode="&#xdd;" horiz-adv-x="1525" d="M301 1335l82 39l459 -733l458 733l80 -39l-491 -792q0 -129 -1 -271.5t-1 -271.5h-90l-2 543zM662 1343l45 142l221 166l152 4z" />
<glyph unicode="&#xde;" horiz-adv-x="1210" d="M100 0v1350h93v-197h520q82 0 154.5 -33t128 -88t87 -130t31.5 -161q0 -84 -31.5 -158.5t-85 -130t-126 -87t-154.5 -31.5h-524v-334h-93zM193 424h524q63 0 118.5 24.5t97.5 67.5t66.5 101.5t24.5 123.5q0 68 -24.5 126.5t-66.5 102.5t-98.5 68.5t-119.5 24.5h-522v-639 z" />
<glyph unicode="&#xdf;" horiz-adv-x="1654" d="M47 53l23 78q72 -18 147.5 -33.5t128.5 -15.5h66q55 0 105 14.5t88 43t60.5 70.5t22.5 97q0 27 -11 55.5t-26 47.5q-20 27 -49 45t-62.5 29.5t-68.5 16.5t-65 7q-57 2 -113.5 12t-110.5 39q-59 35 -97 96.5t-38 137.5q0 111 79 187.5t216 100.5q18 4 56 8.5t85 4.5 q25 0 60 -5.5t70.5 -14.5t70.5 -20.5t61 -21.5l-24 -80q-80 27 -141.5 38t-135.5 11q-51 0 -105 -12t-99 -37.5t-74 -65.5t-29 -95q0 -35 24.5 -80t59.5 -70q39 -25 77 -31t79 -10q8 0 16 -1t17 -1q55 -4 117.5 -17.5t121.5 -50.5q57 -39 93 -103t36 -130 q0 -74 -31.5 -132.5t-86 -97t-127 -59t-154.5 -20.5q-35 0 -76 5t-85 14t-88 21.5t-83 24.5zM803 53l22 78q72 -18 148 -33.5t129 -15.5h65q55 0 105.5 14.5t88.5 43t60.5 70.5t22.5 97q0 27 -11.5 55.5t-25.5 47.5q-20 27 -49 45t-62.5 29.5t-68.5 16.5t-66 7 q-57 2 -113.5 12t-109.5 39q-59 35 -97 96.5t-38 137.5q0 111 79 187.5t216 100.5q18 4 56 8.5t85 4.5q25 0 59.5 -5.5t70.5 -14.5t71 -20.5t61 -21.5l-24 -80q-80 27 -141.5 38t-135.5 11q-51 0 -105.5 -12t-99.5 -37.5t-73.5 -65.5t-28.5 -95q0 -35 24.5 -80t59.5 -70 q39 -25 77 -31t79 -10q8 0 16 -1t16 -1q55 -4 118 -17.5t122 -50.5q57 -39 93 -103t36 -130q0 -74 -32 -132.5t-86 -97t-126.5 -59t-154.5 -20.5q-35 0 -76 5t-85 14t-88 21.5t-83 24.5z" />
<glyph unicode="&#xe0;" horiz-adv-x="978" d="M35 14l442 1073q113 -264 223.5 -527t223.5 -542l-78 -20l-176 403h-377l-176 -407zM256 1421l154 -4l219 -164l39 -137zM326 477h309l-158 406q-14 -37 -29.5 -77t-33 -88t-40 -106.5t-48.5 -134.5z" />
<glyph unicode="&#xe1;" horiz-adv-x="978" d="M35 14l442 1073q113 -264 223.5 -527t223.5 -542l-78 -20l-176 403h-377l-176 -407zM291 1110l45 141l221 166l152 4zM326 477h309l-158 406q-14 -37 -29.5 -77t-33 -88t-40 -106.5t-48.5 -134.5z" />
<glyph unicode="&#xe2;" horiz-adv-x="978" d="M35 14l442 1073q113 -264 223.5 -527t223.5 -542l-78 -20l-176 403h-377l-176 -407zM174 1090l45 143l221 170h74l221 -166l37 -133l-295 213zM326 477h309l-158 406q-14 -37 -29.5 -77t-33 -88t-40 -106.5t-48.5 -134.5z" />
<glyph unicode="&#xe3;" horiz-adv-x="978" d="M35 14l442 1073q113 -264 223.5 -527t223.5 -542l-78 -20l-176 403h-377l-176 -407zM215 1278q35 78 72 107.5t75 29.5q33 0 69 -16.5t69 -34.5q25 -12 52.5 -25.5t49.5 -13.5q16 0 32.5 19.5t37.5 66.5l80 -41q-35 -78 -71 -107.5t-75 -29.5q-33 0 -68.5 17.5 t-68.5 33.5q-25 14 -53.5 26.5t-48.5 12.5q-16 0 -32 -17.5t-36 -66.5zM326 477h309l-158 406q-14 -37 -29.5 -77t-33 -88t-40 -106.5t-48.5 -134.5z" />
<glyph unicode="&#xe4;" horiz-adv-x="978" d="M35 14l442 1073q113 -264 223.5 -527t223.5 -542l-78 -20l-176 403h-377l-176 -407zM311 1341q0 23 15.5 40.5t40.5 17.5q29 0 44 -17.5t15 -40.5q0 -27 -15.5 -43t-43.5 -16q-25 0 -40.5 16.5t-15.5 42.5zM326 477h309l-158 406q-14 -37 -29.5 -77t-33 -88t-40 -106.5 t-48.5 -134.5zM526 1341q0 23 15.5 40.5t42.5 17.5t42 -17.5t15 -40.5q0 -27 -15.5 -43t-41.5 -16q-27 0 -42.5 16.5t-15.5 42.5z" />
<glyph unicode="&#xe5;" horiz-adv-x="978" d="M35 14l442 1073q113 -264 223.5 -527t223.5 -542l-78 -20l-176 403h-377l-176 -407zM326 477h309l-158 406q-14 -37 -29.5 -77t-33 -88t-40 -106.5t-48.5 -134.5zM401 1169q0 33 21.5 54.5t54.5 21.5t54.5 -21.5t21.5 -54.5t-21.5 -54t-54.5 -21t-54.5 21t-21.5 54z M451 1169q0 -27 26 -26q27 0 27 26q0 27 -27 27q-26 0 -26 -27z" />
<glyph unicode="&#xe6;" horiz-adv-x="1536" d="M41 43l696 1036h695v-86h-535v-331h444v-87h-444v-489h571v-86h-659v362h-444q-18 -27 -38 -52t-36 -52l-180 -268zM416 449h393v544h-25q-49 -74 -94 -139.5t-89 -131t-90 -133t-95 -140.5z" />
<glyph unicode="&#xe7;" horiz-adv-x="970" d="M49 530q-2 113 41 213.5t118 176t174 119.5t210 46q72 0 151.5 -22.5t163.5 -71.5l-55 -73q-70 45 -135.5 62t-124.5 17q-96 -2 -180 -40.5t-146.5 -103.5t-97.5 -148.5t-35 -174.5q0 -96 40 -180t105.5 -144.5t149.5 -95t174 -32.5q66 0 139.5 25.5t147.5 78.5l53 -71 q-86 -59 -171 -89t-165 -32q-4 0 -9 1t-9 1v-72q55 -12 88 -59t33 -103q0 -72 -47.5 -120t-118.5 -48q-66 0 -121 45.5t-68 131.5l92 20l3 -41l12 -29l-2 2q12 -20 35.5 -30.5t48.5 -10.5q35 0 55 25t20 59q0 23 -18 45.5t-41 30.5q-12 0 -32.5 1t-26.5 1v160 q-94 18 -176 66.5t-142.5 119t-96.5 159.5t-36 185z" />
<glyph unicode="&#xe8;" horiz-adv-x="806" d="M137 0v1077h623v-88h-533v-311h359v-88h-359v-500h570v-90h-660zM207 1421l153 -4l220 -164l38 -137z" />
<glyph unicode="&#xe9;" horiz-adv-x="806" d="M137 0v1077h623v-88h-533v-311h359v-88h-359v-500h570v-90h-660zM244 1110l45 141l221 166l152 4z" />
<glyph unicode="&#xea;" horiz-adv-x="806" d="M137 0v1077h623v-88h-533v-311h359v-88h-359v-500h570v-90h-660zM150 1104l45 143l221 170h73l222 -166l37 -133l-295 213z" />
<glyph unicode="&#xeb;" horiz-adv-x="806" d="M137 0v1077h623v-88h-533v-311h359v-88h-359v-500h570v-90h-660zM274 1339q0 23 15.5 40.5t40.5 17.5q29 0 44 -17.5t15 -40.5q0 -27 -15.5 -43t-43.5 -16q-25 0 -40.5 16.5t-15.5 42.5zM489 1339q0 23 15.5 40.5t42.5 17.5t42 -17.5t15 -40.5q0 -27 -15.5 -43t-41.5 -16 q-27 0 -42.5 16.5t-15.5 42.5z" />
<glyph unicode="&#xec;" horiz-adv-x="686" d="M149 1376l154 -4l219 -164l39 -137zM328 0v1079h90v-1079h-90z" />
<glyph unicode="&#xed;" horiz-adv-x="686" d="M168 1069l45 142l221 166l152 4zM311 0v1079h90v-1079h-90z" />
<glyph unicode="&#xee;" horiz-adv-x="915" d="M146 1022l45 144l221 170h74l221 -166l37 -133l-295 213zM405 0v1079h90v-1079h-90z" />
<glyph unicode="&#xef;" horiz-adv-x="686" d="M133 1300q0 23 15 40t40 17q29 0 44.5 -17t15.5 -40q0 -27 -15.5 -43t-44.5 -16q-25 0 -40 16t-15 43zM254 0v1079h90v-1079h-90zM348 1300q0 23 15 40t42 17t42.5 -17t15.5 -40q0 -27 -15.5 -43t-42.5 -16t-42 16t-15 43z" />
<glyph unicode="&#xf1;" horiz-adv-x="1124" d="M137 0v1098l727 -967v932h88v-1196l-727 967v-834h-88zM272 1257q35 78 72 108t76 30q33 0 68.5 -16.5t68.5 -35.5q25 -12 52.5 -25t49.5 -13q16 0 33 19t37 67l80 -41q-35 -78 -71 -108t-74 -30q-33 0 -69 17.5t-69 34.5q-25 14 -53.5 26.5t-48.5 12.5 q-16 0 -31.5 -17.5t-36.5 -66.5z" />
<glyph unicode="&#xf2;" horiz-adv-x="1329" d="M98 537q0 115 43 215t118 174.5t174 117.5t214 43t215.5 -43t174 -117.5t116.5 -175t43 -214.5q0 -115 -43 -214.5t-116.5 -174t-174 -117.5t-215.5 -43t-214 43t-174 117.5t-118 174t-43 214.5zM186 537q0 -96 36 -179.5t98.5 -145.5t146.5 -98t180 -36q94 0 178 36 t147.5 98t99.5 145.5t36 179.5t-36 180t-99.5 146.5t-147.5 98t-178 35.5q-96 0 -180 -35.5t-146.5 -98t-98.5 -146.5t-36 -180zM426 1419l154 -4l219 -164l39 -137z" />
<glyph unicode="&#xf3;" horiz-adv-x="1329" d="M98 537q0 115 43 215t118 174.5t174 117.5t214 43t215.5 -43t174 -117.5t116.5 -175t43 -214.5q0 -115 -43 -214.5t-116.5 -174t-174 -117.5t-215.5 -43t-214 43t-174 117.5t-118 174t-43 214.5zM186 537q0 -96 36 -179.5t98.5 -145.5t146.5 -98t180 -36q94 0 178 36 t147.5 98t99.5 145.5t36 179.5t-36 180t-99.5 146.5t-147.5 98t-178 35.5q-96 0 -180 -35.5t-146.5 -98t-98.5 -146.5t-36 -180zM436 1110l45 141l221 166l152 4z" />
<glyph unicode="&#xf4;" horiz-adv-x="1329" d="M98 537q0 115 43 215t118 174.5t174 117.5t214 43t215.5 -43t174 -117.5t116.5 -175t43 -214.5q0 -115 -43 -214.5t-116.5 -174t-174 -117.5t-215.5 -43t-214 43t-174 117.5t-118 174t-43 214.5zM186 537q0 -96 36 -179.5t98.5 -145.5t146.5 -98t180 -36q94 0 178 36 t147.5 98t99.5 145.5t36 179.5t-36 180t-99.5 146.5t-147.5 98t-178 35.5q-96 0 -180 -35.5t-146.5 -98t-98.5 -146.5t-36 -180zM344 1104l45 143l221 170h74l221 -166l37 -133l-295 213z" />
<glyph unicode="&#xf5;" horiz-adv-x="1329" d="M98 537q0 115 43 215t118 174.5t174 117.5t214 43t215.5 -43t174 -117.5t116.5 -175t43 -214.5q0 -115 -43 -214.5t-116.5 -174t-174 -117.5t-215.5 -43t-214 43t-174 117.5t-118 174t-43 214.5zM186 537q0 -96 36 -179.5t98.5 -145.5t146.5 -98t180 -36q94 0 178 36 t147.5 98t99.5 145.5t36 179.5t-36 180t-99.5 146.5t-147.5 98t-178 35.5q-96 0 -180 -35.5t-146.5 -98t-98.5 -146.5t-36 -180zM377 1296q35 78 71.5 108t75.5 30q33 0 69 -16.5t69 -35.5q25 -12 52 -25.5t50 -13.5q16 0 32.5 19.5t37.5 67.5l79 -41q-35 -78 -70.5 -108 t-74.5 -30q-33 0 -68.5 17.5t-68.5 34.5q-25 14 -53.5 26t-49.5 12q-16 0 -31.5 -17t-35.5 -67z" />
<glyph unicode="&#xf6;" horiz-adv-x="1329" d="M98 537q0 115 43 215t118 174.5t174 117.5t214 43t215.5 -43t174 -117.5t116.5 -175t43 -214.5q0 -115 -43 -214.5t-116.5 -174t-174 -117.5t-215.5 -43t-214 43t-174 117.5t-118 174t-43 214.5zM186 537q0 -96 36 -179.5t98.5 -145.5t146.5 -98t180 -36q94 0 178 36 t147.5 98t99.5 145.5t36 179.5t-36 180t-99.5 146.5t-147.5 98t-178 35.5q-96 0 -180 -35.5t-146.5 -98t-98.5 -146.5t-36 -180zM481 1341q0 23 15.5 40.5t40.5 17.5q29 0 44 -17.5t15 -40.5q0 -27 -15.5 -43t-43.5 -16q-25 0 -40.5 16.5t-15.5 42.5zM696 1341 q0 23 15.5 40.5t42.5 17.5t42 -17.5t15 -40.5q0 -27 -15.5 -43t-41.5 -16q-27 0 -42.5 16.5t-15.5 42.5z" />
<glyph unicode="&#xf7;" d="M190 567v90h871v-90h-871zM575 348q0 23 16.5 40.5t41.5 17.5q27 0 43 -17.5t16 -40.5q0 -29 -16.5 -44t-42.5 -15q-25 0 -41.5 15.5t-16.5 43.5zM575 903q0 25 16.5 42.5t41.5 17.5q27 0 43 -17.5t16 -42.5q0 -27 -16.5 -42t-42.5 -15q-25 0 -41.5 15.5t-16.5 41.5z" />
<glyph unicode="&#xf8;" horiz-adv-x="1234" d="M49 537q0 115 44 216t119 176t176 118t218 43q41 0 83 -7.5t79 -17.5q27 68 56.5 139.5t54.5 136.5h96l-121 -309q137 -68 221 -199t84 -296q0 -115 -43 -214.5t-118.5 -173t-176 -116.5t-215.5 -43q-43 0 -83 5t-74 15l-54 -137v2q-16 -41 -35.5 -89t-33.5 -89h-97 l138 344q-145 63 -231.5 194.5t-86.5 301.5zM141 537q0 -131 72 -242t188 -168l334 850q-31 10 -64.5 15t-64.5 5q-96 0 -181 -35.5t-148.5 -99t-99.5 -147.5t-36 -178zM483 94q29 -6 59.5 -10t63.5 -4q94 0 178 36t147.5 98t100.5 145.5t37 177.5q0 133 -69.5 239.5 t-182.5 165.5z" />
<glyph unicode="&#xf9;" horiz-adv-x="1144" d="M123 406v671h86v-671q0 -68 27.5 -128.5t74.5 -104.5t111.5 -69.5t136.5 -25.5q70 0 132.5 25.5t109.5 69.5t73.5 104.5t26.5 128.5v671h90v-671q0 -86 -34.5 -162t-93 -133.5t-137.5 -90t-167 -32.5q-90 0 -169 32.5t-138 90t-94 133t-35 162.5zM352 1419l154 -4 l219 -164l39 -137z" />
<glyph unicode="&#xfa;" horiz-adv-x="1144" d="M123 406v671h86v-671q0 -68 27.5 -128.5t74.5 -104.5t111.5 -69.5t136.5 -25.5q70 0 132.5 25.5t109.5 69.5t73.5 104.5t26.5 128.5v671h90v-671q0 -86 -34.5 -162t-93 -133.5t-137.5 -90t-167 -32.5q-90 0 -169 32.5t-138 90t-94 133t-35 162.5zM350 1110l45 141 l221 166l152 4z" />
<glyph unicode="&#xfb;" horiz-adv-x="1144" d="M123 406v671h86v-671q0 -68 27.5 -128.5t74.5 -104.5t111.5 -69.5t136.5 -25.5q70 0 132.5 25.5t109.5 69.5t73.5 104.5t26.5 128.5v671h90v-671q0 -86 -34.5 -162t-93 -133.5t-137.5 -90t-167 -32.5q-90 0 -169 32.5t-138 90t-94 133t-35 162.5zM258 1106l45 143 l221 170h74l221 -166l37 -133l-295 213z" />
<glyph unicode="&#xfc;" horiz-adv-x="1144" d="M123 406v671h86v-671q0 -68 27.5 -128.5t74.5 -104.5t111.5 -69.5t136.5 -25.5q70 0 132.5 25.5t109.5 69.5t73.5 104.5t26.5 128.5v671h90v-671q0 -86 -34.5 -162t-93 -133.5t-137.5 -90t-167 -32.5q-90 0 -169 32.5t-138 90t-94 133t-35 162.5zM393 1341 q0 23 15.5 40.5t40.5 17.5q29 0 44 -17.5t15 -40.5q0 -27 -15.5 -43t-43.5 -16q-25 0 -40.5 16.5t-15.5 42.5zM608 1341q0 23 15.5 40.5t42.5 17.5t42 -17.5t15 -40.5q0 -27 -15.5 -43t-41.5 -16q-27 0 -42.5 16.5t-15.5 42.5z" />
<glyph unicode="&#xfd;" horiz-adv-x="1173" d="M190 1059l78 37l322 -566l321 566l80 -37l-358 -623v-436h-90l2 436zM408 1110l45 141l221 166l151 4z" />
<glyph unicode="&#xfe;" horiz-adv-x="1071" d="M102 -408v1745h91v-522q57 94 143 153.5t194 59.5q92 0 168 -44t130.5 -116.5t84 -167t29.5 -194.5q0 -98 -29.5 -192.5t-84 -166t-130 -115.5t-168.5 -44q-104 0 -192 59t-145 150v-605h-91zM193 467q10 -70 38.5 -139.5t72.5 -126t101.5 -91t124.5 -34.5q74 0 134.5 38 t103.5 99t66.5 138t23.5 155q0 80 -23.5 157.5t-66.5 139t-103.5 100.5t-134.5 39q-68 0 -125 -36t-101 -92t-72.5 -128t-38.5 -141v-78z" />
<glyph unicode="&#xff;" horiz-adv-x="913" d="M45 1059l78 37l321 -566l322 566l80 -37l-359 -623v-436h-90l2 436zM281 1341q0 23 15 40.5t40 17.5q29 0 44 -17.5t15 -40.5q0 -27 -15 -43t-44 -16q-25 0 -40 16.5t-15 42.5zM496 1341q0 23 15 40.5t42 17.5t42 -17.5t15 -40.5q0 -27 -15 -43t-42 -16t-42 16.5 t-15 42.5z" />
<glyph unicode="&#x152;" horiz-adv-x="1947" d="M113 676q0 139 53 262t144 214t214 144.5t264 53.5h1051v-88h-678v-428h455v-89h-455v-655h723v-90h-1098q-141 0 -264 53t-214 144.5t-143 214.5t-52 264zM203 676q0 -121 46 -227.5t125 -186.5t185.5 -126t226.5 -46h283v1172h-281q-121 0 -227 -46.5t-186 -126 t-126 -186t-46 -227.5z" />
<glyph unicode="&#x153;" horiz-adv-x="1597" d="M113 541q0 113 42 211t115.5 170.5t172 114.5t212.5 42h838v-86h-537v-319h359v-84h-359v-502h572v-88h-875q-113 0 -211 42t-171.5 115.5t-115.5 172t-42 211.5zM199 541q0 -94 35.5 -176t97 -143.5t144.5 -97.5t177 -36h215v905h-213q-94 0 -177 -35.5t-145.5 -97 t-98 -144.5t-35.5 -175z" />
<glyph unicode="&#x178;" horiz-adv-x="1255" d="M301 1335l82 39l459 -733l458 733l80 -39l-491 -792q0 -129 -1 -271.5t-1 -271.5h-90l-2 543zM684 1495q0 23 15 40t40 17q29 0 44.5 -17t15.5 -40q0 -27 -15.5 -43t-44.5 -16q-25 0 -40 16t-15 43zM899 1495q0 23 15 40t42 17t42.5 -17t15.5 -40q0 -27 -15.5 -43 t-42.5 -16t-42 16t-15 43z" />
<glyph unicode="&#x2c6;" horiz-adv-x="681" d="M33 1337l45 144l221 170h74l221 -166l37 -133l-295 213z" />
<glyph unicode="&#x2dc;" horiz-adv-x="499" d="M-25 1475q35 78 72 107.5t76 29.5q33 0 68.5 -16.5t68.5 -34.5q25 -12 52.5 -25.5t49.5 -13.5q16 0 33 19.5t37 66.5l80 -41q-35 -78 -70.5 -107.5t-74.5 -29.5q-33 0 -69 17t-69 34q-25 14 -53.5 26.5t-48.5 12.5q-16 0 -31.5 -17.5t-36.5 -66.5z" />
<glyph unicode="&#x2000;" horiz-adv-x="854" />
<glyph unicode="&#x2001;" horiz-adv-x="1708" />
<glyph unicode="&#x2002;" horiz-adv-x="854" />
<glyph unicode="&#x2003;" horiz-adv-x="1708" />
<glyph unicode="&#x2004;" horiz-adv-x="569" />
<glyph unicode="&#x2005;" horiz-adv-x="427" />
<glyph unicode="&#x2006;" horiz-adv-x="284" />
<glyph unicode="&#x2007;" horiz-adv-x="284" />
<glyph unicode="&#x2008;" horiz-adv-x="213" />
<glyph unicode="&#x2009;" horiz-adv-x="341" />
<glyph unicode="&#x200a;" horiz-adv-x="94" />
<glyph unicode="&#x2010;" horiz-adv-x="1136" d="M139 567v90h871v-90h-871z" />
<glyph unicode="&#x2011;" horiz-adv-x="1136" d="M139 567v90h871v-90h-871z" />
<glyph unicode="&#x2012;" horiz-adv-x="1136" d="M139 567v90h871v-90h-871z" />
<glyph unicode="&#x2013;" horiz-adv-x="1331" d="M139 567v90h1022v-90h-1022z" />
<glyph unicode="&#x2014;" horiz-adv-x="1482" d="M141 567v90h1166v-90h-1166z" />
<glyph unicode="&#x2018;" horiz-adv-x="346" d="M129 1251v248h94v-162z" />
<glyph unicode="&#x2019;" horiz-adv-x="372" d="M74 1087l112 240l129 45l-149 -328z" />
<glyph unicode="&#x201c;" horiz-adv-x="458" d="M131 1251v248h94v-162zM291 1251v248h94v-162z" />
<glyph unicode="&#x201d;" horiz-adv-x="462" d="M115 1333v166h94v-252zM295 1333v166h94v-252z" />
<glyph unicode="&#x2022;" horiz-adv-x="380" d="M88 612q0 41 27.5 71t68.5 30q45 0 73 -30t28 -71q0 -45 -28 -71.5t-73 -26.5q-41 0 -68.5 26.5t-27.5 71.5z" />
<glyph unicode="&#x2026;" horiz-adv-x="1927" d="M145 59q0 23 15.5 40.5t40.5 17.5q29 0 44 -17.5t15 -40.5q0 -59 -59 -59q-25 0 -40.5 15.5t-15.5 43.5zM895 59q0 23 15 40.5t42 17.5t42.5 -17.5t15.5 -40.5q0 -59 -58 -59q-57 0 -57 59zM1626 59q0 23 15 40.5t40 17.5q29 0 44.5 -17.5t15.5 -40.5q0 -59 -60 -59 q-25 0 -40 15.5t-15 43.5z" />
<glyph unicode="&#x202f;" horiz-adv-x="341" />
<glyph unicode="&#x2039;" horiz-adv-x="540" d="M-20 688l446 567v-18t1 -34.5t1 -36v-19.5v-29l-340 -430l100 -125l240 -301q0 -6 -1 -16t-1 -15v-102q-23 27 -54.5 67t-65.5 80.5t-66.5 81.5t-57.5 72q-47 59 -103 130t-99 128z" />
<glyph unicode="&#x203a;" horiz-adv-x="540" d="M102 212v19v31l238 301l100 125l-338 430v29v18.5t1 35t1 34.5v18l447 -565l-447 -561v17.5t-1 34t-1 33.5z" />
<glyph unicode="&#x205f;" horiz-adv-x="427" />
<glyph unicode="&#x20ac;" horiz-adv-x="1316" d="M41 485v90h170q-4 25 -5 52.5t-1 52.5v41.5t4 40.5h-168v92h188q29 121 94.5 215t155.5 159.5t196.5 100.5t217.5 35q137 0 313 -76q-20 -31 -27.5 -48t-13.5 -34q-154 66 -274 66q-84 0 -165 -23.5t-152.5 -68.5t-129 -109.5t-96.5 -146.5v2q-4 -14 -7 -21.5t-6 -14.5 t-6 -14.5t-7 -21.5h647v-92h-668q-6 -43 -6 -86q0 -25 2 -50.5t6 -50.5h666v-90h-643q31 -96 86 -171.5t129.5 -128t165 -80t186.5 -27.5q80 0 167 25.5t167 78.5l51 -76q-92 -59 -196.5 -88.5t-192.5 -29.5q-113 0 -217.5 34.5t-192.5 99t-152.5 157t-97.5 206.5h-188z" />
<glyph unicode="&#x2122;" horiz-adv-x="952" d="M84 1376v54h332v-54h-140v-323h-55v323h-137zM446 1053v391l170 -199l162 193v-385h-55v229q-27 -29 -56.5 -64.5t-50.5 -62.5l-114 137v-239h-56z" />
<glyph unicode="&#x25fc;" horiz-adv-x="1095" d="M0 0v1096h1096v-1096h-1096z" />
</font>
</defs>
</svg>
